<svg xmlns="http://www.w3.org/2000/svg" viewBox="0 0 349.2 46.99"><defs><style>.cls-1{fill:#333;}.cls-2{fill:#0f9bab;}</style></defs><title>Asset 3</title><g id="Vrstva_2" data-name="Vrstva 2"><g id="Layer_1" data-name="Layer 1"><path class="cls-1" d="M160.77,0V47H158l-32-40.81V47h-3.42V0h2.88l32,40.82V0Z"/><path class="cls-2" d="M228.3,33.58C224.88,39.93,218,43.9,208.9,43.9H194V3.09h14.9c9.49,0,16.53,4.32,19.79,11.14h3.71C228.91,5.59,220.42,0,209.17,0h-18.6V47h18.6c10.89,0,19.18-5.25,22.86-13.41Z"/><polygon class="cls-2" points="262.87 14.23 262.87 3.09 290.86 3.09 290.86 0 259.45 0 259.45 14.23 262.87 14.23"/><polygon class="cls-2" points="262.87 33.58 259.45 33.58 259.45 46.99 291.87 46.99 291.87 43.9 262.87 43.9 262.87 33.58"/><rect class="cls-2" x="317.78" y="33.58" width="3.42" height="13.41"/><polygon class="cls-2" points="317.78 0 317.78 14.23 321.2 14.23 321.2 3.09 349.2 3.09 349.2 0 317.78 0"/><ellipse class="cls-2" cx="230.53" cy="23.48" rx="4.7" ry="4.85"/><ellipse class="cls-2" cx="331.8" cy="23.48" rx="4.7" ry="4.85"/><rect class="cls-2" x="230.53" y="22.17" width="101.27" height="2.62"/><polygon class="cls-1" points="78.94 0 75.52 0 53.9 46.99 57.59 46.99 63.57 33.77 64.91 30.88 77.2 3.76 89.55 30.88 90.82 33.77 96.86 46.99 100.56 46.99 78.94 0"/><path class="cls-1" d="M24.77,30.54c7-2.08,11-7.25,11-14.7C35.78,5.91,28.66,0,16.85,0H0V47H3.42V3.09H16.85c10.07,0,15.44,4.63,15.44,12.75,0,7.31-4.43,11.84-12.76,12.62v0l1.87,2.8L32.62,47h3.9Z"/></g></g></svg>